<svg width="81" height="81" viewBox="0 0 81 81" fill="none" xmlns="http://www.w3.org/2000/svg">
<rect width="81" height="81" fill="#E2BF95"/>
<path d="M40.905 10.3356C40.176 10.7892 38.799 12.3768 38.0862 13.5756C36.8874 15.6168 36.6444 17.2206 37.4382 17.8524C37.7946 18.1602 38.8152 18.2574 38.637 17.982C38.5884 17.8848 38.3616 17.82 38.151 17.82C37.5516 17.82 37.1952 17.1558 37.3086 16.281C37.5192 14.8068 39.2688 12.0204 40.6944 10.8864C41.067 10.5948 41.4396 10.3842 41.5368 10.4166C41.8446 10.53 41.6826 11.6316 40.7592 15.876C39.3012 22.6314 38.9934 24.462 39.3336 24.462C39.3984 24.462 39.8358 23.2794 40.3056 21.8214C41.31 18.7758 42.12 16.8318 43.1082 15.1956C44.4852 12.9276 45.5544 12.2148 45.8784 13.365C46.0242 13.9158 45.9594 14.8878 45.5058 18.2898C45.0684 21.5784 45.1008 22.2264 45.6516 21.6756C45.8784 21.4488 45.9108 20.9952 45.684 21.141C45.4572 21.2868 45.4734 20.9466 45.846 18.2088C46.2348 15.3414 46.2996 13.3488 46.0242 12.8304C45.5706 11.988 44.4528 12.5874 43.335 14.2722C42.3954 15.6654 41.2938 17.9658 40.5 20.169C39.7224 22.2912 39.7224 22.3074 41.067 16.0542C41.6502 13.3488 42.12 10.9512 42.12 10.7568C42.12 10.5462 41.9742 10.3032 41.8122 10.206C41.4072 9.99537 41.472 9.99537 40.905 10.3356Z" fill="black"/>
<path d="M57.3156 16.1514C56.052 17.2368 50.6736 23.1336 49.9608 24.2352C49.815 24.4458 49.734 24.6726 49.7664 24.7212C49.9122 24.8508 50.382 24.5916 50.382 24.3648C50.382 24.138 52.8282 21.2544 54.675 19.2942C55.2906 18.6462 56.214 17.8524 56.7 17.5446C57.7368 16.8804 58.806 15.9084 58.806 15.6006C58.806 15.1794 58.2066 15.4062 57.3156 16.1514ZM57.8178 16.2972C57.6072 16.524 57.2832 16.7832 57.105 16.8642C56.9268 16.9614 57.0726 16.767 57.4128 16.443C58.158 15.7788 58.3848 15.6978 57.8178 16.2972Z" fill="black"/>
<path d="M31.914 16.3458C27.9936 17.8038 24.8508 19.845 22.0806 22.7286C17.3664 27.6534 14.904 33.7122 14.904 40.4838C14.904 45.7002 16.3458 50.4468 19.3104 54.918C20.6388 56.9268 23.9922 60.3126 26.001 61.6734C28.8522 63.6012 32.4648 65.0916 35.721 65.7072C37.9566 66.1284 43.173 66.1446 45.279 65.7234C48.7782 65.0268 52.5852 63.3906 55.5012 61.3008C59.4702 58.482 63.0018 53.784 64.6218 49.1994C65.1888 47.5794 65.1726 47.628 64.9782 47.628C64.8972 47.628 64.6056 48.2274 64.3464 48.9564C62.9532 52.7958 61.3494 55.3392 58.5144 58.2066C53.6544 63.1314 47.3526 65.772 40.4838 65.772C35.0406 65.772 29.6946 63.99 25.272 60.7014C23.9922 59.7456 21.4488 57.267 20.4768 56.0196C17.8038 52.5852 15.9732 48.1302 15.3738 43.6266C15.0984 41.5368 15.2604 37.4706 15.714 35.397C16.7832 30.3588 19.1322 26.082 22.7934 22.4694C25.3206 19.9746 28.6254 17.8848 31.9788 16.6698C32.7402 16.3944 33.372 16.1028 33.372 16.0218C33.372 15.8112 33.2748 15.8436 31.914 16.3458Z" fill="black"/>
<path d="M47.6604 17.415C47.0448 17.9334 46.5588 18.9216 46.8018 19.1646C46.9152 19.278 47.1582 19.197 47.6118 18.9054C47.9682 18.6624 48.2922 18.468 48.3246 18.468C48.3408 18.468 48.3408 18.7434 48.3084 19.0836C48.2274 19.845 48.6162 20.3148 49.1508 20.1528C49.6854 19.9908 50.868 18.9702 50.868 18.6624C50.868 18.4842 50.6898 18.5652 50.2686 18.9864C49.5396 19.6668 48.9888 19.9746 48.7458 19.8288C48.6162 19.764 48.6 19.3914 48.6648 18.7758C48.7782 17.8038 48.6648 17.5932 48.2598 18.0792C47.9844 18.4194 47.142 18.8406 47.142 18.6462C47.142 18.549 47.3688 18.225 47.6442 17.901C48.1302 17.3502 48.6486 17.172 48.843 17.496C49.0374 17.82 49.2642 17.658 49.086 17.334C48.843 16.8966 48.2436 16.929 47.6604 17.415Z" fill="black"/>
<path d="M51.678 17.982C51.678 18.063 51.7914 18.144 51.921 18.144C52.0506 18.144 52.164 18.063 52.164 17.982C52.164 17.8848 52.0506 17.82 51.921 17.82C51.7914 17.82 51.678 17.8848 51.678 17.982Z" fill="black"/>
<path d="M50.7708 19.2618C50.22 20.1042 50.2848 20.6388 50.9652 20.7036C51.4674 20.7522 52.6338 20.3148 53.217 19.8612C53.7192 19.4724 53.217 19.5534 52.326 20.007C51.4836 20.4282 50.706 20.5416 50.706 20.2176C50.706 20.1204 50.8842 19.7154 51.111 19.3266C51.6294 18.4518 51.354 18.4032 50.7708 19.2618Z" fill="black"/>
<path d="M55.5984 20.6712C55.0476 20.898 54.837 21.4164 54.6588 22.8744C54.6102 23.3928 54.4806 23.814 54.3996 23.814C54.0432 23.814 52.3422 24.6726 52.2612 24.8994C51.8886 25.8552 53.6544 25.4988 54.4644 24.462C54.8046 24.0246 55.08 23.9112 56.5218 23.571C58.1418 23.1984 58.4496 23.085 58.3038 22.923C58.239 22.8582 57.6234 22.9878 55.1934 23.5548C54.918 23.6196 54.9018 23.5386 55.0152 22.7124C55.161 21.4488 55.323 21.0762 55.8252 20.898C56.1654 20.7684 56.3436 20.7846 56.6514 20.9952C57.105 21.2868 57.3318 21.1896 57.0402 20.8332C56.7648 20.5092 56.1492 20.4282 55.5984 20.6712ZM53.8164 24.624C53.3628 25.0452 52.488 25.3044 52.488 25.0128C52.488 24.9318 54.0756 24.1704 54.27 24.1542C54.3186 24.1542 54.108 24.3648 53.8164 24.624Z" fill="black"/>
<path d="M65.205 24.7374C62.3538 25.3368 60.4422 26.0496 58.8384 27.1188C57.51 27.9936 56.862 28.7874 56.7486 29.646C56.6676 30.1968 56.7324 30.3426 57.1374 30.7638C57.753 31.3632 58.5144 31.59 60.3612 31.7034C61.9974 31.8006 64.638 31.6386 64.638 31.428C64.638 31.3632 63.585 31.347 62.289 31.3794C59.5026 31.4928 58.2228 31.2822 57.4938 30.618C56.9754 30.1158 56.9106 29.6946 57.267 29.0142C57.8664 27.8478 60.507 26.3088 63.261 25.4988C64.395 25.1586 65.0916 25.0614 66.4524 25.0452C67.392 25.0452 68.2344 25.0776 68.2992 25.1424C68.5746 25.4178 68.0076 26.0658 67.0356 26.6004C66.4686 26.9082 65.3346 27.4428 64.5246 27.783C62.7588 28.4958 62.6292 28.8522 64.3788 28.188C67.9428 26.811 69.4656 25.4664 68.202 24.8346C67.8294 24.6402 65.934 24.5754 65.205 24.7374Z" fill="black"/>
<path d="M30.3264 31.0392C28.107 31.6224 27.0702 32.8698 27.054 34.9272C27.054 36.9522 28.0098 38.0052 31.2984 39.6738C33.453 40.743 33.858 41.1966 33.858 42.525C33.858 44.1126 32.8212 45.036 31.023 45.036C29.2572 45.0198 28.5282 44.4852 27.5076 42.363C27.3132 41.958 27.0864 41.634 27.0216 41.634C26.9568 41.634 26.892 42.282 26.892 43.0596V44.4852L27.4428 44.7606C29.1924 45.5868 32.4162 45.7164 34.02 45.0198L34.83 44.6634L34.7976 41.2452L34.749 37.827L32.9508 36.936C31.9788 36.45 30.9258 35.8668 30.6342 35.6562C29.9862 35.1864 29.646 34.4412 29.646 33.5016C29.646 32.076 30.6342 31.266 32.3676 31.266C33.6474 31.266 34.2144 31.6548 35.0082 33.129C35.3484 33.7446 35.6886 34.2792 35.7858 34.3116C35.8992 34.344 35.964 33.9228 35.964 33.0804V31.7844L35.1864 31.4604C33.5502 30.7476 31.8978 30.6018 30.3264 31.0392Z" fill="black"/>
<path d="M63.1476 31.8654C62.6454 31.995 62.8236 32.4162 63.504 32.6916C64.233 32.9994 64.2978 33.1452 63.828 33.291C63.4068 33.4206 62.9856 34.0686 63.1152 34.3926C63.2124 34.668 64.0872 35.0568 65.0106 35.2188C65.9664 35.397 65.7234 35.0406 64.7352 34.83C64.2654 34.7328 63.7308 34.5546 63.5688 34.425C63.2772 34.2144 63.2772 34.1982 63.5688 33.8742C63.7308 33.696 64.1196 33.453 64.4274 33.3396C65.124 33.0966 65.043 32.9022 64.152 32.6106C63.0828 32.2542 63.0018 32.076 63.8928 32.076C64.8648 32.076 65.286 32.3028 65.286 32.805C65.286 33.0318 65.367 33.21 65.448 33.21C65.5452 33.21 65.61 32.9994 65.61 32.724C65.61 32.3514 65.4966 32.1894 65.124 31.995C64.6866 31.7682 63.7632 31.7034 63.1476 31.8654Z" fill="black"/>
<path d="M65.6586 35.3322C65.3832 35.6076 65.3994 35.9964 65.691 36.3852C65.8206 36.5472 65.934 36.7416 65.934 36.8064C65.934 36.855 65.2212 36.8712 64.3464 36.8226C63.0018 36.7416 62.7426 36.774 62.5482 37.0008C62.3376 37.2438 62.3538 37.3248 62.6292 37.6002C62.8074 37.7622 63.5364 38.1672 64.233 38.475C65.2698 38.9286 65.4318 39.042 65.043 39.042C64.2816 39.042 63.7794 39.4632 63.909 39.9978C64.0872 40.7106 66.0798 42.5088 66.3876 42.2172C66.4524 42.1524 66.3552 42.0228 66.177 41.9256C65.7234 41.6664 64.476 40.4838 64.2978 40.1274C64.0548 39.69 64.395 39.366 65.1402 39.366C65.6262 39.366 65.9016 39.4956 66.501 40.014C67.2462 40.662 67.878 40.8564 67.878 40.4514C67.878 40.176 67.473 39.8196 66.7764 39.4632C66.4848 39.3174 66.2904 39.123 66.339 39.042C66.3876 38.9772 65.853 38.718 65.1726 38.4912C63.7794 38.0214 62.856 37.5192 62.856 37.2438C62.856 37.098 63.342 37.0818 64.719 37.1628C65.7396 37.2114 66.582 37.2114 66.582 37.1628C66.582 37.1142 66.4038 36.855 66.177 36.5796C65.6262 35.9154 65.6748 35.802 66.3876 36.0612C67.554 36.4824 68.2182 36.2394 67.5864 35.6076C67.1976 35.2026 65.9502 35.0406 65.6586 35.3322ZM67.1652 35.721C67.5702 36.0288 67.2138 36.0288 66.42 35.721L65.853 35.5104L66.3552 35.4942C66.6144 35.478 66.987 35.5914 67.1652 35.721Z" fill="black"/>
<path d="M34.182 35.5914C34.182 35.6562 34.4088 35.8506 34.668 35.9964L35.154 36.2718V42.525V48.762L34.6356 49.086L34.101 49.41L37.017 49.3938H39.933L39.2688 49.086C38.8962 48.924 38.556 48.6648 38.4912 48.519C38.4426 48.3732 38.394 47.3202 38.394 46.1862V44.1126L39.9006 44.0154C40.7106 43.9506 41.5368 43.8696 41.7312 43.8048C41.9904 43.74 42.2334 43.254 42.8328 41.5044C43.497 39.5442 43.8858 38.5884 43.902 38.8962C43.902 39.1068 39.852 50.6574 39.5118 51.3864C39.3984 51.6618 39.0582 51.9534 38.6694 52.1154C38.1348 52.3584 38.0862 52.4232 38.3778 52.488C38.5722 52.5366 39.2364 52.5366 39.8682 52.5204L41.0184 52.4556L40.5162 52.1478C40.2408 51.9858 40.014 51.759 40.014 51.6456C40.014 51.5322 40.2732 50.6574 40.5972 49.7016L41.1804 47.952H43.5618H45.9432L46.4616 49.5396C47.0934 51.4512 47.0934 51.7266 46.5588 52.1478L46.1538 52.4718L48.6 52.5204C51.273 52.569 51.8076 52.5042 51.1272 52.1964C50.9004 52.0992 50.6088 51.8562 50.4792 51.6456C50.3496 51.435 49.3614 48.681 48.276 45.522C47.2068 42.363 46.2348 39.5118 46.1214 39.204C45.9918 38.8476 45.7812 38.6208 45.522 38.556C45.3114 38.5074 45.0036 38.232 44.8416 37.908C44.3718 37.0494 43.5618 36.369 42.5088 35.9478C41.634 35.6076 41.2452 35.5752 37.8756 35.5104C35.8344 35.478 34.182 35.5104 34.182 35.5914ZM40.824 36.2556C41.1966 36.45 41.5206 36.8226 41.796 37.3572C42.1524 38.0538 42.201 38.3454 42.1848 39.771C42.1686 42.5736 41.4234 43.578 39.4146 43.578H38.394V39.771V35.964H39.3336C39.9168 35.964 40.4676 36.0774 40.824 36.2556ZM45.6354 47.3526C45.5868 47.4984 45.0036 47.5308 43.4646 47.4984L41.3748 47.4498L42.0552 45.4734C42.6384 43.7562 42.7842 43.4646 43.2378 43.2054C43.7724 42.8814 43.8372 42.7032 43.578 42.0228C43.4808 41.7798 43.4646 41.4396 43.5132 41.2452C43.5942 41.0022 43.9182 41.7474 44.6796 44.0316C45.2466 45.7488 45.684 47.2392 45.6354 47.3526Z" fill="black"/>
</svg>
